:SAMPLES-PER-SECOND 24
:FULLY-SPECIFIED
:DEGREES
260
root  1.09545 37.2282 31.5071 178.444 -51.1805 175.833
RightUpLeg  -8.90308 -9.03896 -15.8405
RightLeg  38.4593 5.48741 4.41233
RightFoot  -18.3639 0.442683 9.22897
RightToes  -1.74623e-010 0 -2.59999e-017
Spine  2.36469 -0.17643 -3.78164
Spine1  16.4007 -1.09104 -0.188056
HEad  -18.2906 -30.4692 13.1993
LeftShoulder1  2.07769 -3.28489 -24.3956
LeftArm  16.0434 -2.11804 -35.5268
LeftForeArm  107.323 -78.489 -115.132
LeftHand  0.107827 6.5177 13.0199
RightShoulder  3.59676 5.87074 32.4886
RightArm  -6.66423 -3.31026 28.7018
RightForeArm  4.01678 29.4172 6.17261
RightHand  -0.5118 -1.723 -16.1039
LeftUpLeg  0.253616 8.48101 9.84794
LeftLeg  34.239 -6.73206 -4.52711
LeftFoot  -22.9411 -1.19275 -13.004
LeftToes  -6.27559e-011 -2.10356e-011 8.24929e-012
261
root  1.05343 37.8606 31.4207 178.444 -47.2713 176.277
RightUpLeg  -10.5087 -8.99012 -15.6676
RightLeg  37.974 8.64681 6.93098
RightFoot  -13.0611 0.0413765 8.65886
RightToes  -1.74623e-010 0 -2.59999e-017
Spine  1.33816 0.110672 -4.12823
Spine1  17.4023 -0.659312 -0.723595
HEad  -18.5341 -28.8517 14.4501
LeftShoulder1  2.11968 -3.38391 -24.5761
LeftArm  14.7326 3.10769 -36.8888
LeftForeArm  108.849 -78.3505 -116.616
LeftHand  0.0872402 6.27795 13.6524
RightShoulder  3.50595 5.79094 31.837
RightArm  -8.88197 -4.28658 31.9648
RightForeArm  11.0522 33.4634 6.80609
RightHand  -0.390879 -3.28015 -21.0776
LeftUpLeg  2.29256 10.1657 9.87961
LeftLeg  30.8817 -5.74027 -3.32718
LeftFoot  -19.2407 -0.915774 -14.8564
LeftToes  -6.27559e-011 -2.10356e-011 8.24929e-012
262
root  0.8935 39.2252 31.156 178.823 -42.8336 176.909
RightUpLeg  -11.3488 -11.1081 -15.3967
RightLeg  34.6169 14.9976 10.652
RightFoot  -2.37439 -0.837371 10.1703
RightToes  -1.74623e-010 0 -2.59999e-017
Spine  0.267961 -0.0729218 -4.63855
Spine1  16.0663 -0.726691 -0.330328
HEad  -15.2682 -26.6001 13.6004
LeftShoulder1  2.13038 -3.38238 -24.7451
LeftArm  15.0784 12.0053 -38.2142
LeftForeArm  113.858 -77.3082 -124.141
LeftHand  -0.00408921 5.48487 13.3532
RightShoulder  3.43347 5.69179 31.4532
RightArm  -8.22233 -9.20817 34.9267
RightForeArm  14.3026 40.2996 8.59321
RightHand  -0.418297 -2.79594 -18.3566
LeftUpLeg  5.32247 11.8324 10.0453
LeftLeg  23.9599 -3.5163 -1.4866
LeftFoot  -9.42008 0.32039 -16.5935
LeftToes  -6.27559e-011 -2.10356e-011 8.24929e-012
263
root  0.777742 40.3497 30.934 179.061 -37.8575 178.284
RightUpLeg  -13.357 -14.6118 -14.0493
RightLeg  31.7707 19.2701 12.2591
RightFoot  5.77796 -2.14893 14.489
RightToes  -1.74623e-010 0 -2.59999e-017
Spine  -0.165561 -0.377505 -4.23201
Spine1  13.6614 -1.02865 0.437303
HEad  -11.4807 -23.3176 10.7621
LeftShoulder1  2.24208 -3.64702 -25.1823
LeftArm  15.2052 19.3343 -39.3283
LeftForeArm  120.828 -76.6453 -128.977
LeftHand  -0.105685 4.57399 13.262
RightShoulder  3.43223 5.62686 31.7081
RightArm  -6.54086 -14.4034 35.0116
RightForeArm  16.2899 48.3422 11.4475
RightHand  -0.30852 -1.67938 -9.3299
LeftUpLeg  6.97608 10.0115 9.51105
LeftLeg  18.6734 2.50278 0.655768
LeftFoot  -0.462533 1.34741 -14.1917
LeftToes  -6.27559e-011 -2.10356e-011 8.24929e-012
264
root  0.756161 40.8587 30.8065 178.933 -31.9362 179.478
RightUpLeg  -16.6139 -16.8159 -11.9302
RightLeg  30.1028 16.8654 10.1072
RightFoot  6.24123 -2.42354 15.8811
RightToes  -1.74623e-010 0 -2.59999e-017
Spine  -0.488488 -0.568524 -3.85956
Spine1  13.6948 -1.36782 1.38564
HEad  -11.0842 -18.3792 8.56663
LeftShoulder1  2.31147 -4.02658 -24.5004
LeftArm  13.9131 22.2356 -42.2152
LeftForeArm  123.301 -77.1042 -127.605
LeftHand  -0.191968 3.95155 14.7155
RightShoulder  3.35546 5.50507 31.3607
RightArm  -4.76372 -16.7634 34.6241
RightForeArm  19.6775 55.4278 14.7801
RightHand  -0.24543 -0.841362 -6.33581
LeftUpLeg  7.97961 7.43616 8.16854
LeftLeg  18.1972 3.06919 1.02691
LeftFoot  1.55032 1.29759 -11.5148
LeftToes  -6.27559e-011 -2.10356e-011 8.24929e-012
265
root  0.730014 40.8259 30.7435 178.531 -25.0557 -179.541
RightUpLeg  -20.6494 -16.9092 -9.3803
RightLeg  28.4021 12.2991 6.90776
RightFoot  4.91579 -1.84809 13.124
RightToes  -1.74623e-010 0 -2.59999e-017
Spine  -0.739991 -0.884669 -3.19708
Spine1  15.2663 -1.74838 2.10401
HEad  -12.6537 -12.3623 7.55675
LeftShoulder1  2.27197 -4.03695 -23.9029
LeftArm  13.2288 20.5609 -43.8693
LeftForeArm  116.459 -78.0419 -120.966
LeftHand  -0.301721 3.34499 16.7435
RightShoulder  3.27977 5.4334 30.8065
RightArm  -2.8392 -15.544 34.7764
RightForeArm  21.9746 58.1437 16.3131
RightHand  -0.547895 0.363603 -11.127
LeftUpLeg  10.3326 6.24152 6.82468
LeftLeg  18.3535 -1.38234 -0.328144
LeftFoot  0.278106 1.08063 -10.6158
LeftToes  -6.27559e-011 -2.10356e-011 8.24929e-012
266
root  0.688453 40.2184 30.7148 178.535 -17.3723 -178.528
RightUpLeg  -25.4406 -15.7803 -6.05466
RightLeg  25.4291 10.7673 5.31571
RightFoot  5.56483 -1.52415 10.4833
RightToes  -1.74623e-010 0 -2.59999e-017
Spine  -0.0841716 -1.16675 -2.34991
Spine1  14.7226 -2.04415 2.5768
HEad  -13.0175 -6.02481 5.97341
LeftShoulder1  2.3369 -4.00343 -24.9472
LeftArm  13.2458 15.8208 -41.8993
LeftForeArm  99.8953 -79.2054 -106.035
LeftHand  -0.454891 2.45106 17.8024
RightShoulder  3.28511 5.45726 30.7676
RightArm  -1.88749 -12.4528 34.2998
RightForeArm  20.483 56.9114 15.6196
RightHand  -0.818998 1.10754 -14.7721
LeftUpLeg  13.4268 6.44362 6.04296
LeftLeg  16.9607 -2.5091 -0.85024
LeftFoot  -3.14482 0.745712 -10.1109
LeftToes  -6.27559e-011 -2.10356e-011 8.24929e-012
